<?xml version="1.0" encoding="iso-8859-1"?>
<!-- Uploaded to: SVG Repo, www.svgrepo.com, Generator: SVG Repo Mixer Tools -->
<svg height="800px" width="800px" version="1.1" id="Layer_1" xmlns="http://www.w3.org/2000/svg" xmlns:xlink="http://www.w3.org/1999/xlink" 
	 viewBox="0 0 512.001 512.001" xml:space="preserve">
<path style="fill:#E1E1E1;" d="M420.64,39.488C398.515,14.345,366.617,0.005,333.126,0L178.914,0.059c-0.008,0-0.012,0-0.02,0
	c-33.391,0-65.231,14.265-87.351,39.283C69.419,64.366,59.08,97.688,63.178,130.839l45.239,365.815
	c1.091,8.824,8.588,15.348,17.48,15.348h258.59c8.863,0,16.345-6.503,17.469-15.292l46.803-365.425
	C453.014,98.064,442.765,64.631,420.64,39.488z"/>
<path style="fill:#F5F4F5;" d="M253.653,0l-74.739,0.059c-0.008,0-0.012,0-0.02,0c-33.391,0-65.231,14.265-87.351,39.283
	C69.419,64.366,59.08,97.688,63.178,130.839l45.239,365.815c1.091,8.824,8.588,15.348,17.48,15.348h127.756V0z"/>
<path style="fill:#4AD0FF;" d="M99.425,423.937l8.993,72.716c1.091,8.824,8.588,15.348,17.48,15.348h258.59
	c8.863,0,16.345-6.503,17.469-15.292l9.321-72.771L99.425,423.937L99.425,423.937z"/>
<path style="fill:#99E5FF;" d="M99.425,423.937l8.993,72.716c1.091,8.824,8.588,15.348,17.48,15.348h127.756v-88.063L99.425,423.937
	L99.425,423.937z"/>
<path style="fill:#ABA8AB;" d="M253.653,379.318c-9.727,0-17.613-7.886-17.613-17.613V234.894c0-9.727,7.886-17.613,17.613-17.613
	c9.727,0,17.613,7.886,17.613,17.613v126.811C271.265,371.432,263.381,379.318,253.653,379.318z"/>
<g>
	<path style="fill:#CCCCCC;" d="M253.653,379.318c-9.727,0-17.613-7.886-17.613-17.613V234.894c0-9.727,7.886-17.613,17.613-17.613
		V379.318z"/>
	<path style="fill:#CCCCCC;" d="M194.943,378.547c-9.634,1.339-18.531-5.386-19.869-15.02l-17.456-125.604
		c-1.339-9.634,5.386-18.531,15.02-19.869s18.531,5.386,19.869,15.02l17.456,125.604
		C211.303,368.312,204.577,377.208,194.943,378.547z"/>
</g>
<path style="fill:#ABA8AB;" d="M317.061,378.547c9.634,1.339,18.531-5.386,19.869-15.02l17.456-125.604
	c1.339-9.634-5.386-18.531-15.02-19.869c-9.634-1.339-18.531,5.386-19.869,15.02l-17.456,125.604
	C300.701,368.312,307.427,377.208,317.061,378.547z"/>
</svg>